# xmcd
#
# Track frame offsets:
#	150
#	14925
#	22125
#	36825
#	50250
#	57150
#	71775
#	85125
#	92925
#	106275
#	116550
#	129675
#
# Disc length: 1850 seconds
#
# Revision: 0
# Processed by: cddbd v1.5.2PL0 Copyright (c) Steve Scherf et al.
# Submitted via: audiograbber 1.83.01
#
DISCID=ac07380c
DTITLE=Zhenja Oks and Elisabeth Ruhe - Konzertmitschnitte
DYEAR=1900
DGENRE=Folk
TTITLE0=Vorbemerkung
TTITLE1=Zeichen
TTITLE2=O lago da lua
TTITLE3=Es war einmal
TTITLE4=April Song
TTITLE5=Achsen
TTITLE6=Verse auf ein kleines Kind
TTITLE7=Lirilauberl
TTITLE8=Das Gespenst der Klage
TTITLE9=Welke Blätter
TTITLE10=Der Seefahrer
TTITLE11=Mascarados (Maskerade(?))
EXTD=
EXTT0=
EXTT1=
EXTT2=
EXTT3=
EXTT4=
EXTT5=
EXTT6=
EXTT7=
EXTT8=
EXTT9=
EXTT10=
EXTT11=
PLAYORDER=
